<svg xmlns="http://www.w3.org/2000/svg" width="102" height="101" fill="none"><path fill="#DC0D28" d="m92.903 34.162-9.511 3.65L64.52 79.345 34 100.118s21.008 1.74 37.337-9.351c16.328-11.092 24.573-25.528 27.276-37.26 2.694-11.734 1.427-15.223 1.427-15.223l-7.138-4.122Z"/><path fill="#FF5117" d="M66.582 26.551s-6.023.794-9.2 11.412c-3.175 10.618-1.427 19.023-8.564 28.222-7.138 9.2-13.634 12.688-25.046 10.466C8.178 73.62 9.183 62.207 4.428 61.591c-3.65-.474-5.871 11.26-.321 20.61 5.55 9.351 16.328 16.65 28.061 17.756 11.733 1.107 32.184-5.55 43.604-23.154C87.193 59.2 88.621 46.681 88.942 38.757c.32-7.923-10.627-12.054-10.627-12.054l-11.733-.152Z"/><path fill="#FFCB88" d="M69.597 38.166c-2.618-2.019-5.946 1.073-7.256 5.947-1.309 4.874-1.427 9.038-2.137 11.412-.71 2.374-2.618 5.71-.118 7.138 2.5 1.427 4.992-3.21 5.947-6.775.954-3.564 1.782-8.447 3.091-10.82 1.31-2.374 2.535-5.314.474-6.902ZM58.337 65.712c-2.694-.954-3.252 1.352-3.725 2.061-.473.71-1.351 2.459.16 3.413 1.682 1.064 3.016-.16 3.802-1.352.794-1.19 1.3-3.581-.237-4.122Z"/><path fill="#98B71E" d="M68.719 28.612c1.985 1.9-.794 3.802.634 4.917 1.68 1.309 6.42-1.352 10.305-.077 3.886 1.276 3.725 5.871 6.58 6.184 2.856.32 2.771-2.382 6.657-1.825 3.886.558 5.71 5.626 7.611 5.077 1.9-.55.87-6.817-3.725-11.176-3.666-3.471-6.108-4.198-6.344-5.87-.237-1.665 1.503-9.351 2.06-13.161.558-3.801.398-9.039-4.358-11.412-4.756-2.382-8.802-.16-9.596 1.19-.963 1.631-.617 3.92 3.413 2.383 3.725-1.428 6.26 1.985 5.786 5.313-.473 3.328-3.016 8.084-4.52 9.993-1.503 1.91-2.297 3.016-3.412 3.252-1.106.237-4.756-.397-8.168-.236-4.063.186-8.32 2.221-7.772 3.886.55 1.664 3.303.076 4.849 1.562Z"/></svg>